ffmpeg version 3.4.8-0ubuntu0.2 Copyright (c) 2000-2020 the FFmpeg developers
  built with gcc 7 (Ubuntu 7.5.0-3ubuntu1~18.04)
  configuration: --prefix=/usr --extra-version=0ubuntu0.2 --toolchain=hardened --libdir=/usr/lib/x86_64-linux-gnu --incdir=/usr/include/x86_64-linux-gnu --enable-gpl --disable-stripping --enable-avresample --enable-avisynth --enable-gnutls --enable-ladspa --enable-libass --enable-libbluray --enable-libbs2b --enable-libcaca --enable-libcdio --enable-libflite --enable-libfontconfig --enable-libfreetype --enable-libfribidi --enable-libgme --enable-libgsm --enable-libmp3lame --enable-libmysofa --enable-libopenjpeg --enable-libopenmpt --enable-libopus --enable-libpulse --enable-librubberband --enable-librsvg --enable-libshine --enable-libsnappy --enable-libsoxr --enable-libspeex --enable-libssh --enable-libtheora --enable-libtwolame --enable-libvorbis --enable-libvpx --enable-libwavpack --enable-libwebp --enable-libx265 --enable-libxml2 --enable-libxvid --enable-libzmq --enable-libzvbi --enable-omx --enable-openal --enable-opengl --enable-sdl2 --enable-libdc1394 --enable-libdrm --enable-libiec61883 --enable-chromaprint --enable-frei0r --enable-libopencv --enable-libx264 --enable-shared
  libavutil      55. 78.100 / 55. 78.100
  libavcodec     57.107.100 / 57.107.100
  libavformat    57. 83.100 / 57. 83.100
  libavdevice    57. 10.100 / 57. 10.100
  libavfilter     6.107.100 /  6.107.100
  libavresample   3.  7.  0 /  3.  7.  0
  libswscale      4.  8.100 /  4.  8.100
  libswresample   2.  9.100 /  2.  9.100
  libpostproc    54.  7.100 / 54.  7.100
Input #0, mpeg, from '../.././Samples/mpeg_demuxer_crash_NSFW.mpg':
  Duration: 00:00:11.59, start: 0.219522, bitrate: 279 kb/s
    Stream #0:0[0x1e0]: Video: mpeg1video, yuv420p(tv), 192x144 [SAR 1:1 DAR 4:3], 104857 kb/s, 23.98 fps, 23.98 tbr, 90k tbn, 23.98 tbc
    Stream #0:1[0x1c0]: Audio: mp2, 32000 Hz, stereo, s16p, 64 kb/s
Stream mapping:
  Stream #0:0 -> #0:0 (mpeg1video (native) -> h264 (libx264))
  Stream #0:1 -> #0:1 (mp2 (native) -> aac (native))
Press [q] to stop, [?] for help
[libx264 @ 0x55faafebb5a0] using SAR=1/1
[libx264 @ 0x55faafebb5a0] using cpu capabilities: MMX2 SSE2Fast SSSE3 SSE4.2 AVX FMA3 BMI2 AVX2
[libx264 @ 0x55faafebb5a0] profile High, level 1.1
[libx264 @ 0x55faafebb5a0] 264 - core 152 r2854 e9a5903 - H.264/MPEG-4 AVC codec - Copyleft 2003-2017 - http://www.videolan.org/x264.html - options: cabac=1 ref=3 deblock=1:0:0 analyse=0x3:0x113 me=hex subme=7 psy=1 psy_rd=1.00:0.00 mixed_ref=1 me_range=16 chroma_me=1 trellis=1 8x8dct=1 cqm=0 deadzone=21,11 fast_pskip=1 chroma_qp_offset=-2 threads=4 lookahead_threads=1 sliced_threads=0 nr=0 decimate=1 interlaced=0 bluray_compat=0 constrained_intra=0 bframes=3 b_pyramid=2 b_adapt=1 b_bias=0 direct=1 weightb=1 open_gop=0 weightp=2 keyint=250 keyint_min=23 scenecut=40 intra_refresh=0 rc_lookahead=40 rc=crf mbtree=1 crf=23.0 qcomp=0.60 qpmin=0 qpmax=69 qpstep=4 ip_ratio=1.40 aq=1:1.00
Output #0, mov, to '/home/aleksandr/Pract/Samples/mpeg_demuxer_crash_NSFW.mpg_tc/output_std3.mov':
  Metadata:
    encoder         : Lavf57.83.100
    Stream #0:0: Video: h264 (libx264) (avc1 / 0x31637661), yuv420p(progressive), 192x144 [SAR 1:1 DAR 4:3], q=-1--1, 23.98 fps, 24k tbn, 23.98 tbc
    Metadata:
      encoder         : Lavc57.107.100 libx264
    Side data:
      cpb: bitrate max/min/avg: 0/0/0 buffer size: 0 vbv_delay: -1
    Stream #0:1: Audio: aac (LC) (mp4a / 0x6134706D), 32000 Hz, stereo, fltp, 128 kb/s
    Metadata:
      encoder         : Lavc57.107.100 aac
frame=  189 fps=0.0 q=28.0 size=       0kB time=00:00:07.52 bitrate=   0.0kbits/s speed=  15x    frame=  281 fps=0.0 q=-1.0 Lsize=     467kB time=00:00:11.68 bitrate= 327.5kbits/s dup=1 drop=0 speed=13.8x    
video:275kB audio:182kB subtitle:0kB other streams:0kB global headers:0kB muxing overhead: 2.124573%
[libx264 @ 0x55faafebb5a0] frame I:2     Avg QP:23.07  size:  3774
[libx264 @ 0x55faafebb5a0] frame P:95    Avg QP:25.66  size:  2059
[libx264 @ 0x55faafebb5a0] frame B:184   Avg QP:30.64  size:   421
[libx264 @ 0x55faafebb5a0] consecutive B-frames:  1.4%  3.6% 90.7%  4.3%
[libx264 @ 0x55faafebb5a0] mb I  I16..4:  0.9% 89.4%  9.7%
[libx264 @ 0x55faafebb5a0] mb P  I16..4:  0.2% 15.4%  1.4%  P16..4: 35.7% 26.8% 16.9%  0.0%  0.0%    skip: 3.7%
[libx264 @ 0x55faafebb5a0] mb B  I16..4:  0.0%  0.1%  0.0%  B16..8: 56.1%  8.7%  2.0%  direct: 3.2%  skip:29.8%  L0:29.4% L1:26.5% BI:44.1%
[libx264 @ 0x55faafebb5a0] 8x8 transform intra:90.5% inter:79.7%
[libx264 @ 0x55faafebb5a0] coded y,uvDC,uvAC intra: 94.0% 87.2% 46.8% inter: 30.0% 16.9% 3.5%
[libx264 @ 0x55faafebb5a0] i16 v,h,dc,p:  0% 56% 39%  6%
[libx264 @ 0x55faafebb5a0] i8 v,h,dc,ddl,ddr,vr,hd,vl,hu: 21% 20% 29%  3%  5%  7%  5%  5%  6%
[libx264 @ 0x55faafebb5a0] i4 v,h,dc,ddl,ddr,vr,hd,vl,hu: 21% 13% 16%  6%  8% 13%  7%  8%  8%
[libx264 @ 0x55faafebb5a0] i8c dc,h,v,p: 49% 19% 26%  6%
[libx264 @ 0x55faafebb5a0] Weighted P-Frames: Y:18.9% UV:3.2%
[libx264 @ 0x55faafebb5a0] ref P L0: 62.8% 20.1% 12.2%  4.3%  0.5%
[libx264 @ 0x55faafebb5a0] ref B L0: 90.6%  8.9%  0.5%
[libx264 @ 0x55faafebb5a0] ref B L1: 99.8%  0.2%
[libx264 @ 0x55faafebb5a0] kb/s:191.62
[aac @ 0x55faafee5ee0] Qavg: 183.615
	Command being timed: "/usr/bin/ffmpeg -i ../.././Samples/mpeg_demuxer_crash_NSFW.mpg -c:v libx264 -f mov /home/aleksandr/Pract/Samples/mpeg_demuxer_crash_NSFW.mpg_tc/output_std3.mov"
	User time (seconds): 1.58
	System time (seconds): 0.01
	Percent of CPU this job got: 179%
	Elapsed (wall clock) time (h:mm:ss or m:ss): 0:00.89
	Average shared text size (kbytes): 0
	Average unshared data size (kbytes): 0
	Average stack size (kbytes): 0
	Average total size (kbytes): 0
	Maximum resident set size (kbytes): 54724
	Average resident set size (kbytes): 0
	Major (requiring I/O) page faults: 0
	Minor (reclaiming a frame) page faults: 7159
	Voluntary context switches: 3491
	Involuntary context switches: 350
	Swaps: 0
	File system inputs: 0
	File system outputs: 952
	Socket messages sent: 0
	Socket messages received: 0
	Signals delivered: 0
	Page size (bytes): 4096
	Exit status: 0
